PathFileType	3	(X/Y/Z)	D:\Jess\PFP\Labelled\PA07\20250627\SRRun01.trc
DataRate	CameraRate	NumFrames	NumMarkers	Units	OrigDataRate	OrigDataStartFrame	OrigNumFrames
250.0	250.0	4	37	mm	250.0	36563	2501
Frame#	Time	C7			T10			CLAV			LSHO			RSHO			LASIS			RASIS			LPSIS			RPSIS			LILCR			RILCR			LGTR			LTHI			LLTHI			LLEP			LMEP			LPSH			LLSH			LDSH			LLMAL			LMMAL			LTOE			L5TH			LHEE			RGTR			RTHI			RLTHI			RLEP			RMEP			RPSH			RLSH			RDSH			RLMAL			RMMAL			RTOE			R5TH			RHEE			
		X1	Y1	Z1	X2	Y2	Z2	X3	Y3	Z3	X4	Y4	Z4	X5	Y5	Z5	X6	Y6	Z6	X7	Y7	Z7	X8	Y8	Z8	X9	Y9	Z9	X10	Y10	Z10	X11	Y11	Z11	X12	Y12	Z12	X13	Y13	Z13	X14	Y14	Z14	X15	Y15	Z15	X16	Y16	Z16	X17	Y17	Z17	X18	Y18	Z18	X19	Y19	Z19	X20	Y20	Z20	X21	Y21	Z21	X22	Y22	Z22	X23	Y23	Z23	X24	Y24	Z24	X25	Y25	Z25	X26	Y26	Z26	X27	Y27	Z27	X28	Y28	Z28	X29	Y29	Z29	X30	Y30	Z30	X31	Y31	Z31	X32	Y32	Z32	X33	Y33	Z33	X34	Y34	Z34	X35	Y35	Z35	X36	Y36	Z36	X37	Y37	Z37	

1564	146.248	827.0765375087543	1452.655412418584	-808.3017818050287	840.5103268466929	1196.166214612794	-761.8428380389533	795.4792667604273	1348.905884923855	-948.7528207796303	661.1610610594662	1441.637968373602	-834.8387112238115	962.5725750734408	1432.088227671212	-909.5311377935559	703.2713221770167	967.0671393567908	-896.337017469266	906.6140532588946	949.5137362177819	-917.5804089761951	805.0597363971758	1027.54784728037	-749.6174330535639	846.53103894174	1023.642724571254	-755.453450408687	664.5124187793529	1043.799772161726	-847.8306983121959	963.5347163671775	1040.19250891748	-876.8737740787794	641.0015085498809	868.2504856505208	-847.6839253825718	697.022305526689	740.9072288155717	-981.1200655681338	651.1674943381429	662.8191123744465	-915.3106256840261	668.2087040014387	536.4630370982961	-947.5941993969917	nan	nan	nan	718.6014621886283	441.7232234843601	-1015.928723335926	666.3122909835064	325.3261828080801	-943.571697245843	725.5158248300989	257.6493311755321	-1008.460535030489	707.5634552934569	139.1053373494717	-973.3443477816217	nan	nan	nan	715.9920817965096	124.9291782583734	-1128.578671316023	685.8391460398129	84.98726399558144	-1112.949059845353	767.9035648852547	102.0403274427785	-908.3005070948237	984.6215482921853	851.2607403043748	-818.4668252024027	896.6417320101547	677.8254210339172	-852.6329654026048	955.0395822271103	643.5674857819356	-750.1390713944349	938.6223899222304	537.2783386028286	-671.4349258221632	nan	nan	nan	887.935395004195	431.8859099374821	-651.5173585220579	938.9758286470818	392.8971430106523	-517.9526740810538	880.8019233067172	302.997617122486	-498.5677312109507	908.126160826757	262.4025960676818	-397.2514653095234	nan	nan	nan	877.227728340642	115.69659009223	-427.0113913750178	911.4818407596144	111.4681604442639	-386.9656325460845	862.2733944978478	325.5441283951691	-344.6867606466524	
1565	146.252	826.4882752750656	1451.79609877291	-808.3914902994167	840.1663140039442	1195.362254954298	-761.567912403618	795.2205059793732	1347.922731807562	-948.6692386056422	660.4173367230514	1440.328836089307	-834.8959415147582	962.188059987325	1431.147004192448	-909.6884285568713	703.3280959150383	966.1324728090913	-896.6302877677923	906.7971754876945	949.1160217203185	-917.7792285133436	804.9095608460968	1026.338610915778	-749.6076218823099	846.3964734233749	1022.574302499672	-755.4353819123007	664.5151344756647	1042.373038950808	-847.8150046306134	963.5673073025227	1039.832191513977	-876.2383469636579	640.7946206230981	866.3933258723829	-847.5454251953175	696.7502676730668	737.1471248237931	-979.3306992503423	650.7312005368184	660.1631971152339	-913.2760994711238	668.1657797835011	534.0223849310873	-945.461048843733	nan	nan	nan	719.0529641932062	439.9919189242995	-1014.605352549081	666.7159223496631	322.6501556289405	-944.1087724018963	726.0455366483317	255.9919760933542	-1010.201081185513	708.1362806162683	136.5495766021828	-977.1732836623714	nan	nan	nan	717.8691315738272	125.2167202704808	-1132.96658906515	687.9672156578148	84.56529426791522	-1118.274999448604	768.2590198024187	98.44457047747819	-912.4624382426266	984.4897067331366	850.3468815684172	-819.2112251610562	896.1564189491328	676.8493761719059	-854.8461387388272	954.3713702514573	641.6774478074941	-752.7180021251102	937.6540095024201	535.4396169417034	-674.3928103499344	nan	nan	nan	887.3827654216602	430.3083332605929	-652.59270518142	938.7944947406558	394.4733951261091	-518.1299940635837	880.8458738467173	304.9610741978136	-496.5488872821855	908.6141483225092	266.5455108073151	-394.3570209761981	nan	nan	nan	877.5859879981767	119.4971676588308	-421.6484720250827	911.9413113527684	115.8512073581764	-381.6673910524012	863.0130569605939	330.4910532102625	-342.4992962290354	
1566	146.256	825.8669475184895	1450.786963094635	-808.4742004917447	839.814674323224	1194.378804203104	-761.2501081414051	794.9792481275592	1346.761924065951	-948.5494698576308	659.6245768304616	1438.819196463171	-834.9365888565309	961.8222762641883	1430.018725190559	-909.8112769015162	703.3964869808664	965.0685974442259	-896.9248076889368	907.0037226806933	948.5611964625664	-917.9872529963748	804.7719025421687	1024.928160410183	-749.583212430291	846.2710593289133	1021.292334828249	-755.4087539466847	664.5279402335603	1040.809258842335	-847.8074755106651	963.644261210884	1039.308441495188	-875.4740343516039	640.5809990332481	864.4272241663982	-847.4199739284128	696.5321828683701	733.3884103848164	-977.5877335174573	650.3198296847925	657.4696642135228	-911.3900382193307	668.1305795625767	531.5340130727228	-943.4292367239069	nan	nan	nan	719.5042342620812	438.1319996765124	-1013.243166225823	667.1892622705135	320.0161829117675	-944.3247429429996	726.6319487206905	254.2329970177532	-1011.437194352499	708.8131758403654	134.0619721042642	-980.1347950009983	nan	nan	nan	719.7716629895324	124.9519131663534	-1136.332645966073	690.1047031202066	83.7268612506187	-1122.380707318999	768.7965894019134	95.27376746378741	-915.6823749698455	984.3555933816249	849.2176379323861	-819.9860680980664	895.7162304075398	675.6665684862616	-857.1683408110555	953.7085376580528	639.5514158581124	-755.4193861261085	936.649816496339	533.3440366106508	-677.5641979592664	nan	nan	nan	886.8544555694205	428.4844008722467	-653.9126298030926	938.5879726535543	395.9151647611998	-518.5881327552557	880.907271363512	306.8025574327756	-494.8122990421008	909.1023238801107	270.6342877277891	-391.7682282226819	nan	nan	nan	877.9780014085283	123.2790085759899	-416.5584353532084	912.4303929930527	120.2332613179747	-376.6486120091529	863.7337745414051	335.3633278206411	-340.649286756331	
1567	146.26	825.2122891440501	1449.623707269109	-808.5469597212103	839.4607838894409	1193.209919341455	-760.8946588278864	794.7552525550218	1345.422629144963	-948.3929201182494	658.7874587375613	1437.109654100866	-834.9607493590692	961.4734505577626	1428.703667526791	-909.894015117482	703.4695723496491	963.8779414413378	-897.215900898757	907.2249250711208	947.8407276307056	-918.2084346737249	804.6529230387159	1023.317074474976	-749.5482927742941	846.1607540787012	1019.793771903581	-755.3782330042303	664.5504849181746	1039.123143795721	-847.8077269726748	963.7644012395908	1038.606057338607	-874.6021677380811	640.3646221347544	862.3676558819327	-847.3104746050309	696.3657367555008	729.6794276962778	-975.9314370689503	649.9585303878234	654.759080245846	-909.6743154980145	668.1113205340598	529.0024848145988	-941.5131269075307	nan	nan	nan	719.9646033525353	436.1399408430216	-1011.855059699623	667.7367306030061	317.4088820836454	-944.2254591236533	727.2900149743228	252.3511512988099	-1012.163509635	709.6042153151093	131.622501539133	-982.2059592469856	nan	nan	nan	721.6970247455712	124.1024694025055	-1138.667737125556	692.233069728834	82.45256497359934	-1125.245968348067	769.5214811393355	92.51473534792657	-917.9233506385034	984.2202552951449	847.8693270847209	-820.7926607344983	895.3279261787567	674.2785832137989	-859.5787171828645	953.0637836354288	637.2016786479767	-758.2172116065794	935.6267171433635	531.0066187618984	-680.9255655766927	nan	nan	nan	886.367733118335	426.425664331604	-655.4705085750467	938.3620971139981	397.217645720949	-519.3266471844689	880.9958928133672	308.5139101536662	-493.3736786194874	909.5889688419284	274.6550537550179	-389.5067615193784	nan	nan	nan	878.4194857965269	127.0215487752846	-411.7498963757985	912.9538245348715	124.5995695019181	-371.9086713825832	864.4181101470516	340.1529812499345	-339.1786684604891	
